<svg width="30" height="40" viewBox="0 0 30 40" fill="none" xmlns="http://www.w3.org/2000/svg">
<path d="M0.686483 7.21773C1.6018 6.30242 3.08578 6.30242 4.00101 7.21773L11.5406 14.818V21.3545L0.686483 10.5323C-0.228829 9.61703 -0.228829 8.13305 0.686483 7.21773Z" fill="#BB464E"/>
<path d="M8.51969 1.29528C9.77 0.960281 11.0552 1.70223 11.3902 2.95255L13.275 10.0179L10.9166 19.3033L6.86234 4.16575C6.52742 2.91544 7.26937 1.63028 8.51969 1.29528Z" fill="#FFB0B3"/>
<path d="M21.88 25.8594L18.0851 40H5.1423L15.3953 1.73773C15.7303 0.487417 17.0154 -0.254614 18.2657 0.0804642C19.5161 0.415464 20.258 1.70062 19.923 2.95093L16.2243 16.8499L16.2245 16.8505C17.0809 13.9333 19.7816 11.7969 22.9722 11.7969C25.474 11.7969 27.8071 13.1431 29.0611 15.3102C29.7093 16.4305 29.3265 17.8643 28.2062 18.5126C27.0859 19.1609 25.6521 18.7781 25.0038 17.6577C24.585 16.934 23.8066 16.4844 22.9723 16.4844C21.68 16.4844 20.6286 17.5358 20.6286 18.8281C20.6286 20.1205 21.68 21.1719 22.9723 21.1719C23.8066 21.1719 24.585 20.7223 25.0038 19.9985C25.6521 18.8781 27.086 18.4954 28.2062 19.1437C29.3266 19.7919 29.7093 21.2257 29.0611 22.3461C27.8071 24.5132 25.474 25.8594 22.9722 25.8594H21.88Z" fill="white"/>
<path d="M15.3953 1.73773C15.7303 0.487417 17.0154 -0.254614 18.2657 0.0804642C19.516 0.415464 20.258 1.70062 19.923 2.95093L10.0182 40H5.14237L15.3953 1.73773Z" fill="#FFBDBC"/>
</svg>
